<?xml version="1.0" standalone="no"?>
<!DOCTYPE svg PUBLIC "-//W3C//DTD SVG 20010904//EN"
 "http://www.w3.org/TR/2001/REC-SVG-20010904/DTD/svg10.dtd">
<svg version="1.0" xmlns="http://www.w3.org/2000/svg"
 width="1904.000000pt" height="1904.000000pt" viewBox="0 0 1904.000000 1904.000000"
 preserveAspectRatio="xMidYMid meet">
<metadata>
Created by potrace 1.14, written by Peter Selinger 2001-2017
</metadata>
<g transform="translate(0.000000,1904.000000) scale(0.100000,-0.100000)"
fill="#000000" stroke="none">
<path d="M17848 12820 l-3 -260 -233 135 c-129 74 -237 135 -242 135 -9 0
-245 -409 -239 -414 2 -1 24 -14 49 -28 25 -14 90 -51 145 -83 55 -32 120 -69
145 -83 25 -14 64 -37 87 -52 l43 -26 -53 -30 c-28 -17 -133 -77 -232 -134
-99 -57 -182 -105 -184 -106 -3 -3 38 -79 118 -216 10 -18 40 -70 66 -116 52
-91 54 -92 125 -47 19 12 100 59 180 105 80 46 162 93 182 106 21 13 40 24 43
24 3 0 5 -119 5 -265 0 -205 3 -265 13 -266 6 0 111 -1 232 -2 l220 0 1 259
c0 142 2 260 5 262 7 5 59 -20 129 -61 36 -21 72 -42 80 -47 8 -5 70 -40 136
-79 67 -39 126 -71 131 -71 8 0 27 32 103 169 15 25 43 75 64 111 83 140 79
128 53 144 -12 7 -118 69 -234 136 -117 67 -213 123 -213 125 0 3 143 88 240
143 19 10 51 29 70 40 19 11 60 34 90 50 36 20 55 37 55 49 0 23 -217 403
-230 403 -5 0 -113 -61 -240 -134 -126 -74 -232 -132 -234 -130 -2 2 -5 118
-5 256 l-1 253 -232 3 -233 2 -2 -260z"/>
<path d="M15290 11978 c36 -215 36 -215 45 -283 3 -27 8 -61 10 -75 8 -59 20
-184 29 -315 4 -49 9 -117 12 -150 3 -33 7 -322 9 -642 l3 -583 -34 0 c-31 0
-37 4 -53 43 -85 194 -161 309 -300 447 -112 111 -227 195 -358 259 -78 39
-232 94 -288 104 -17 3 -54 10 -84 16 -149 30 -466 33 -601 6 -14 -3 -51 -10
-83 -15 -89 -17 -233 -67 -331 -116 -271 -136 -481 -359 -631 -669 -87 -179
-152 -409 -172 -611 -10 -98 -10 -436 -1 -524 31 -285 114 -541 247 -760 25
-41 48 -79 53 -85 4 -5 27 -35 50 -65 190 -250 487 -434 788 -490 30 -6 64
-12 75 -14 138 -27 439 -27 590 -1 298 52 516 166 736 385 126 125 218 254
285 398 38 81 39 82 75 82 l37 0 -3 -147 c-3 -145 -7 -193 -26 -303 -13 -77
-17 -99 -24 -120 -3 -10 -7 -27 -9 -37 -5 -21 -30 -115 -44 -159 l-10 -31 697
1 696 1 -1 25 c-1 26 -11 94 -19 120 -2 8 -7 33 -10 55 -14 98 -16 111 -20
131 -2 12 -6 48 -10 80 -4 33 -8 69 -10 82 -2 12 -7 62 -11 110 -3 48 -8 98
-10 112 -14 111 -19 523 -18 1555 0 1066 4 1379 19 1520 2 22 7 69 10 105 23
238 24 243 82 568 l6 32 -700 0 -700 0 7 -42z m-645 -1963 c143 -28 289 -89
379 -157 73 -56 173 -165 221 -243 84 -135 125 -277 129 -452 6 -230 -48 -401
-182 -579 -148 -196 -350 -319 -576 -350 -55 -8 -262 -7 -306 1 -234 42 -378
113 -521 255 -75 75 -156 191 -174 250 -1 3 -7 19 -14 35 -41 98 -64 234 -63
363 2 199 51 360 154 509 143 207 360 334 633 371 64 9 270 7 320 -3z"/>
<path d="M2608 10825 c-2 -1 -37 -5 -78 -9 -180 -15 -339 -60 -503 -142 -60
-30 -178 -105 -197 -124 -3 -3 -21 -18 -40 -34 -167 -136 -280 -279 -380 -484
l-50 -103 -38 3 -37 3 1 115 c0 63 3 148 7 188 9 93 50 293 83 401 14 45 22
86 19 90 -11 11 -1385 7 -1386 -4 -1 -5 -1 -14 0 -19 1 -4 8 -43 16 -85 8 -42
18 -96 21 -121 3 -25 9 -70 15 -101 5 -31 11 -76 13 -100 14 -160 18 -207 22
-234 27 -232 27 -2949 -1 -3149 -2 -17 -7 -69 -10 -116 -3 -47 -7 -96 -9 -110
-4 -23 -11 -75 -22 -160 -4 -31 -39 -238 -44 -265 -1 -5 -2 -14 -1 -20 1 -7
236 -9 688 -8 782 2 716 0 709 11 -3 5 -8 24 -11 43 -19 115 -25 148 -30 184
-3 22 -7 47 -10 55 -2 8 -6 40 -10 71 -3 31 -7 65 -9 75 -3 18 -11 92 -20 189
-4 36 -11 124 -22 270 -2 28 -6 307 -8 621 l-4 570 36 -1 c39 -1 39 -1 81 -95
191 -431 590 -722 1077 -786 69 -9 371 -11 431 -3 32 4 74 10 93 12 225 29
496 146 665 286 60 50 174 173 227 243 189 254 307 576 335 913 11 129 7 422
-6 530 -75 600 -399 1081 -861 1278 -90 38 -232 82 -297 92 -21 3 -48 7 -58 9
-70 13 -386 30 -397 21z m-153 -823 c218 -47 402 -167 530 -347 207 -290 211
-747 9 -1046 -104 -154 -272 -279 -455 -337 -167 -54 -386 -60 -561 -17 -157
38 -284 110 -398 225 -146 147 -232 308 -265 500 -20 111 -8 311 26 425 50
175 186 364 330 463 113 77 261 133 387 148 32 3 58 7 60 9 11 10 263 -7 337
-23z"/>
<path d="M6297 10824 c-1 -1 -51 -5 -112 -8 -60 -4 -121 -9 -135 -11 -14 -1
-54 -6 -90 -10 -36 -4 -72 -8 -80 -10 -8 -1 -40 -6 -70 -10 -59 -7 -264 -41
-302 -50 -13 -2 -34 -7 -48 -9 -84 -14 -251 -53 -345 -80 l-110 -31 -3 -377
-2 -378 57 37 c165 106 494 213 758 247 22 3 58 8 80 10 251 33 545 19 741
-35 299 -82 483 -238 565 -480 l33 -94 4 -267 4 -266 -41 1 c-38 2 -43 5 -67
52 -148 281 -498 498 -888 550 -149 20 -356 25 -501 12 -415 -37 -733 -196
-933 -465 -138 -188 -202 -400 -196 -652 8 -288 104 -512 304 -710 182 -181
399 -286 680 -330 41 -6 86 -14 100 -17 14 -2 108 -6 210 -7 389 -6 666 62
914 224 133 87 274 241 332 362 19 41 32 49 64 41 22 -6 22 -8 17 -137 -6
-145 -27 -262 -62 -347 l-22 -56 658 0 c363 0 659 1 659 2 0 2 -7 22 -16 46
-13 39 -40 148 -49 204 -18 109 -33 237 -41 350 -3 50 -8 110 -10 135 -3 25
-6 350 -8 723 -2 373 -7 710 -11 749 -35 394 -241 686 -615 869 -83 41 -274
112 -334 123 -12 3 -59 13 -106 24 -88 20 -130 28 -190 36 -19 3 -57 8 -85 12
-118 16 -304 26 -518 28 -103 1 -189 1 -190 0z m403 -1815 c304 -64 518 -246
525 -446 6 -165 -80 -301 -245 -387 -142 -75 -268 -104 -480 -110 -466 -13
-776 174 -784 474 -8 268 245 463 633 486 53 4 97 7 98 8 6 5 205 -15 253 -25z"/>
<path d="M11567 10824 c-1 -1 -29 -5 -62 -8 -33 -4 -78 -11 -100 -16 -22 -5
-41 -9 -43 -9 -15 2 -135 -44 -202 -78 -214 -108 -389 -296 -513 -553 -40 -82
-111 -275 -123 -335 -24 -122 -24 -122 -61 -123 l-35 -1 5 242 c3 133 8 258
12 277 3 19 11 62 16 95 20 119 62 250 115 355 l32 65 -729 0 c-401 0 -729 -2
-729 -5 0 -3 7 -41 15 -85 23 -118 54 -329 61 -415 3 -41 7 -88 9 -105 14
-116 19 -394 20 -1020 0 -779 -7 -982 -40 -1199 -2 -11 -6 -42 -9 -67 -8 -58
-12 -81 -36 -207 -11 -57 -20 -104 -20 -106 0 -1 315 -3 700 -3 385 0 700 1
700 2 0 1 -9 28 -20 61 -11 32 -22 67 -24 79 -2 11 -9 38 -14 60 -14 50 -20
86 -28 150 -4 28 -8 52 -10 55 -18 32 -29 1038 -12 1140 19 109 67 244 122
335 96 162 271 323 444 410 57 28 180 72 224 80 314 56 643 -11 865 -176 29
-22 54 -39 56 -39 2 0 4 238 4 529 l0 528 -66 21 c-87 28 -184 49 -257 58 -56
6 -262 13 -267 8z"/>
<path d="M17462 10732 c-5 -1 -6 -22 -2 -45 15 -80 20 -122 27 -242 10 -158
10 -1881 0 -2055 -12 -208 -24 -351 -32 -400 -2 -14 -7 -50 -10 -81 -3 -31 -8
-67 -10 -80 -3 -13 -7 -40 -10 -61 -3 -20 -12 -70 -21 -110 -8 -40 -17 -87
-20 -104 l-6 -31 707 0 706 0 -6 24 c-13 54 -43 211 -50 263 -4 30 -9 63 -11
74 -2 10 -6 44 -9 75 -3 31 -8 71 -10 88 -3 18 -7 63 -10 100 -2 38 -8 111
-12 163 -10 124 -10 2045 0 2176 4 55 12 127 17 160 6 32 10 66 10 74 0 13
-75 15 -620 15 -341 0 -624 -1 -628 -3z"/>
<path d="M9950 7009 c-31 -13 -40 -26 -40 -65 0 -33 25 -63 57 -68 19 -4 72
19 74 32 7 46 5 64 -9 81 -22 25 -51 32 -82 20z"/>
<path d="M9199 7002 c-1 -9 -1 -733 0 -750 1 -9 15 -12 49 -10 39 2 47 6 48
23 2 38 4 39 32 12 62 -59 185 -71 265 -24 183 107 175 408 -14 506 -77 41
-194 25 -253 -34 -14 -14 -26 -25 -28 -25 -2 0 -2 69 0 154 l3 155 -51 -1
c-27 0 -50 -3 -51 -6z m325 -326 c92 -38 130 -178 75 -276 -87 -155 -302 -85
-301 98 1 143 108 227 226 178z"/>
<path d="M3512 6774 c-115 -26 -192 -122 -200 -250 -6 -97 17 -163 79 -226
113 -114 317 -97 402 34 24 38 22 43 -25 62 -41 15 -44 15 -55 -1 -38 -57 -81
-78 -155 -76 -71 1 -134 72 -145 161 -16 141 108 251 224 200 33 -15 44 -24
67 -60 17 -26 18 -26 54 -11 54 22 57 28 31 65 -65 91 -163 128 -277 102z"/>
<path d="M4649 6779 c-127 -19 -213 -123 -218 -264 -5 -166 94 -283 246 -290
103 -5 171 25 236 104 l28 34 -48 23 c-44 22 -48 22 -57 6 -47 -85 -178 -101
-253 -30 -25 23 -60 105 -50 115 4 3 98 7 209 7 l203 1 -1 30 c-4 178 -128
289 -295 264z m111 -105 c32 -15 56 -42 69 -77 l11 -27 -150 0 -150 0 11 27
c30 79 130 116 209 77z"/>
<path d="M5338 6785 c-2 -2 -24 -5 -50 -8 -26 -3 -59 -12 -75 -20 -35 -18 -85
-67 -81 -79 2 -5 22 -20 45 -34 40 -24 42 -24 52 -6 14 26 78 55 118 54 66 -3
116 -45 129 -109 l6 -31 -43 15 c-84 28 -204 14 -267 -33 -41 -32 -58 -67 -61
-127 -5 -102 79 -181 195 -182 68 0 105 15 147 58 l27 28 0 -35 0 -36 48 0 48
0 -2 193 c-1 105 -6 204 -12 218 -14 36 -60 87 -91 104 -25 12 -127 35 -133
30z m116 -309 c29 -18 30 -24 17 -59 -43 -113 -213 -140 -252 -39 -16 42 19
95 76 114 34 11 133 2 159 -16z"/>
<path d="M7079 6779 c-90 -14 -158 -62 -202 -144 -33 -61 -31 -202 3 -269 50
-98 152 -152 264 -142 91 8 180 68 200 132 6 18 0 24 -34 38 l-40 16 -36 -39
c-72 -81 -190 -72 -250 18 -64 97 -31 235 68 287 61 32 156 3 192 -56 16 -29
17 -29 54 -13 54 22 57 28 31 65 -58 82 -151 122 -250 107z"/>
<path d="M7738 6785 c-2 -2 -24 -5 -50 -8 -26 -3 -59 -12 -75 -20 -31 -16 -83
-65 -83 -77 0 -5 19 -19 42 -33 40 -23 43 -24 55 -7 7 9 29 25 50 35 86 41
182 -1 198 -87 l7 -36 -44 15 c-66 23 -160 18 -222 -10 -67 -31 -98 -73 -104
-143 -9 -109 74 -188 198 -188 68 -1 101 13 148 62 l22 23 0 -35 0 -36 48 0
48 0 -1 198 c-1 174 -4 201 -20 227 -28 45 -57 75 -85 90 -24 12 -126 35 -132
30z m117 -309 c30 -20 31 -26 5 -75 -41 -81 -161 -115 -214 -61 -75 75 -1 166
127 157 31 -3 68 -12 82 -21z"/>
<path d="M8429 6779 c-55 -8 -105 -32 -122 -59 -17 -28 -24 -25 -23 12 1 32 0
32 -46 33 l-48 1 -1 -45 c0 -26 -1 -144 -2 -263 l-2 -218 52 0 51 0 4 178 c3
167 4 179 26 210 49 68 129 82 184 33 l33 -29 2 -184 c1 -100 2 -189 2 -195 1
-9 18 -13 50 -13 l48 0 0 138 c-1 181 6 221 46 267 26 30 41 38 79 42 55 6
100 -19 115 -64 5 -16 10 -102 11 -193 1 -91 2 -171 2 -178 0 -9 14 -12 48
-10 l47 3 2 170 c2 190 -7 254 -42 301 -67 87 -222 88 -303 1 l-24 -25 -36 36
c-45 45 -91 60 -153 51z"/>
<path d="M10402 6778 c-29 -4 -65 -15 -80 -23 -33 -18 -82 -61 -82 -72 0 -4
19 -20 42 -34 l41 -27 25 25 c47 47 124 57 179 23 35 -21 53 -48 60 -92 4 -26
2 -28 -14 -20 -47 25 -162 30 -221 11 -85 -28 -132 -88 -132 -170 0 -155 219
-236 334 -124 l36 35 0 -36 0 -35 47 3 48 3 0 173 c0 97 -4 193 -11 218 -26
102 -139 162 -272 142z m128 -288 c55 -16 61 -23 54 -59 -7 -31 -75 -110 -98
-112 -6 0 -22 -3 -36 -5 -37 -7 -108 23 -116 49 -20 58 -6 89 50 117 45 22 92
25 146 10z"/>
<path d="M12195 6779 c-69 -9 -97 -22 -145 -65 -56 -51 -82 -105 -88 -185 -7
-98 17 -169 76 -228 58 -58 113 -79 202 -76 85 2 147 33 198 99 30 39 28 49
-13 69 -47 22 -51 22 -71 -12 -46 -78 -169 -89 -236 -20 -41 42 -56 79 -56
139 0 116 86 202 188 188 37 -5 85 -37 104 -69 16 -28 17 -28 54 -12 52 21 57
28 40 55 -60 89 -150 131 -253 117z"/>
<path d="M13273 6773 c-110 -25 -182 -119 -191 -249 -11 -170 91 -293 247
-299 104 -4 187 33 236 107 l24 36 -42 18 c-23 10 -45 20 -48 21 -3 2 -12 -8
-19 -22 -33 -61 -138 -87 -207 -52 -41 21 -80 73 -88 115 -5 28 -3 32 17 33
13 0 104 1 203 1 106 0 183 5 186 10 17 27 -13 144 -51 196 -55 77 -158 109
-267 85z m137 -101 c37 -18 82 -76 74 -95 -4 -10 -122 -14 -276 -8 -12 1 -15
6 -11 19 31 86 130 126 213 84z"/>
<path d="M14038 6785 c-2 -2 -21 -5 -43 -8 -58 -7 -89 -21 -135 -63 -56 -51
-82 -105 -88 -185 -13 -186 111 -317 288 -305 85 7 151 43 193 108 24 38 22
44 -25 63 -38 15 -42 15 -50 1 -26 -46 -81 -77 -143 -81 -26 -2 -84 21 -108
43 -31 27 -58 102 -56 152 6 125 108 205 215 170 42 -14 52 -22 78 -62 17 -26
18 -26 54 -11 54 22 57 28 31 65 -41 59 -83 87 -154 103 -29 7 -55 12 -57 10z"/>
<path d="M14633 6779 c-124 -22 -207 -126 -212 -264 -4 -118 43 -207 137 -262
40 -24 57 -27 127 -27 62 0 89 5 122 22 46 24 113 88 113 107 0 7 -18 22 -40
33 l-40 20 -23 -28 c-34 -40 -68 -59 -114 -64 -50 -5 -111 21 -141 59 -22 28
-46 95 -36 104 2 3 96 5 208 4 l203 -1 -4 47 c-9 105 -69 205 -141 232 -45 18
-115 25 -159 18z m116 -105 c29 -11 45 -27 60 -57 11 -22 19 -42 18 -44 -2 -1
-69 -4 -150 -5 -143 -3 -147 -2 -141 17 28 88 120 127 213 89z"/>
<path d="M4182 6763 c-17 -8 -45 -29 -61 -45 l-28 -29 1 38 1 38 -47 0 c-27 0
-48 -2 -49 -5 -1 -7 -1 -492 0 -507 1 -9 18 -13 51 -13 l50 0 0 160 c0 130 3
167 16 193 32 62 78 88 141 82 37 -4 40 -2 51 29 16 44 15 63 -4 70 -29 11
-88 6 -122 -11z"/>
<path d="M5986 6770 c-16 -5 -46 -26 -67 -46 l-37 -36 1 38 2 38 -47 1 c-43 1
-48 -1 -49 -22 0 -13 0 -122 0 -243 0 -121 0 -229 0 -240 1 -17 8 -20 50 -20
l49 0 4 173 c3 146 6 176 21 199 30 43 67 62 123 62 l51 0 15 47 c15 46 15 47
-6 53 -29 8 -75 6 -110 -4z"/>
<path d="M11088 6766 c-16 -6 -43 -27 -61 -44 l-34 -33 2 28 c1 15 0 33 -2 39
-4 12 -77 13 -89 1 -5 -5 -9 -423 -5 -504 1 -9 18 -13 51 -13 l50 0 0 163 c0
149 2 165 23 201 29 51 77 77 133 71 l42 -4 12 45 c11 39 11 47 -1 55 -20 12
-89 10 -121 -5z"/>
<path d="M12826 6759 c-21 -11 -48 -32 -61 -47 l-24 -27 4 31 c5 41 -3 49 -52
50 -37 1 -43 -2 -44 -20 0 -24 0 -475 1 -493 0 -9 17 -13 50 -13 l50 0 0 160
c0 167 7 201 49 240 27 26 74 41 112 36 35 -5 36 -4 51 44 15 47 15 48 -6 54
-42 11 -92 6 -130 -15z"/>
<path d="M15315 6764 c-16 -8 -41 -26 -56 -40 -33 -32 -37 -30 -34 9 l4 33
-50 0 c-37 0 -49 -4 -49 -16 -1 -25 -1 -370 -1 -442 l1 -68 50 0 50 0 0 163
c0 146 2 165 21 196 11 19 26 39 32 45 22 22 72 36 108 32 35 -5 36 -4 51 44
15 47 15 48 -6 54 -38 10 -90 6 -121 -10z"/>
<path d="M9929 6646 c-1 -213 -1 -370 0 -389 1 -15 8 -18 49 -15 l47 3 0 259
0 260 -47 1 -48 2 -1 -121z"/>
<path d="M6209 6361 c-57 -44 -15 -140 54 -127 62 12 85 70 46 120 -25 31 -66
34 -100 7z"/>
<path d="M11317 6366 c-27 -21 -33 -77 -10 -104 42 -51 116 -32 129 35 12 60
-69 107 -119 69z"/>
<path d="M15541 6356 c-48 -51 0 -136 68 -121 36 8 49 22 57 63 5 25 1 36 -19
56 -34 34 -76 34 -106 2z"/>
</g>
</svg>
